<?xml version="1.0" encoding="iso-8859-1"?>
<!-- Uploaded to: SVG Repo, www.svgrepo.com, Generator: SVG Repo Mixer Tools -->
<!DOCTYPE svg PUBLIC "-//W3C//DTD SVG 1.1//EN" "http://www.w3.org/Graphics/SVG/1.1/DTD/svg11.dtd">
<svg fill="#000000" height="800px" width="800px" version="1.1" id="Capa_1" xmlns="http://www.w3.org/2000/svg" xmlns:xlink="http://www.w3.org/1999/xlink" 
	 viewBox="0 0 222 222" xml:space="preserve">
<g>
	<circle cx="81" cy="129.375" r="10"/>
	<circle cx="120" cy="129.375" r="10"/>
	<circle cx="159" cy="129.375" r="10"/>
	<path d="M221.805,165.276l-18.667-77.444c-0.245-1.016-0.714-1.963-1.373-2.774c-19.094-23.498-47.411-36.974-77.688-36.974H53.611
		c-3.866,0-7,3.134-7,7s3.134,7,7,7h70.466c20.653,0,40.246,7.291,55.663,20.389H83.838c-21.051,0-41.165,7.862-56.636,22.138
		c-15.471,14.276-24.921,33.694-26.61,54.678l-0.569,7.067c-0.157,1.948,0.508,3.873,1.833,5.309s3.19,2.253,5.145,2.253h208
		c2.145,0,4.172-0.983,5.499-2.669C221.827,169.563,222.308,167.362,221.805,165.276z M14.588,159.917
		c3.123-35.618,33.444-63.444,69.25-63.444H190.82l15.292,63.444H14.588z"/>
</g>
</svg>